<?xml version="1.0" encoding="utf-8"?>
<!-- Generator: Adobe Illustrator 28.0.0, SVG Export Plug-In . SVG Version: 6.00 Build 0)  -->
<svg version="1.1" id="Layer_1" xmlns="http://www.w3.org/2000/svg" xmlns:xlink="http://www.w3.org/1999/xlink" x="0px" y="0px"
	 viewBox="0 0 500 500" style="enable-background:new 0 0 500 500;" xml:space="preserve">
<style type="text/css">
	.st0{fill:#FFFFFF;}
</style>
<path class="st0" d="M443.83,199.35c-9.03-23.49-34.69-62.33-69.59-62.33H250H125.76c-34.9,0-60.56,38.84-69.59,62.33
	c-9.03,23.49-54.2,169.82-51.49,186.08c2.71,16.26,11.74,25.29,24.39,23.49c12.65-1.81,44.78-37.64,88.19-68.96
	c43.41-31.32,126.79-33.11,126.79-33.11H250h5.94c0,0,83.39,1.79,126.79,33.11c43.41,31.32,75.54,67.16,88.19,68.96
	c12.65,1.81,21.68-7.23,24.39-23.49C498.02,369.16,452.86,222.83,443.83,199.35z M186.43,245.12H159.7v26.73h-37.36v-26.73H95.6
	v-37.36h26.73v-26.73h37.36v26.73h26.73V245.12z M306.36,245.99c-8.8,0-15.93-7.13-15.93-15.93c0-8.8,7.13-15.93,15.93-15.93
	c8.8,0,15.93,7.13,15.93,15.93C322.3,238.86,315.16,245.99,306.36,245.99z M346.97,283.1c-8.28,0-14.99-6.71-14.99-14.99
	s6.71-14.99,14.99-14.99s14.99,6.71,14.99,14.99S355.25,283.1,346.97,283.1z M372.72,226.44c-14.22,0-25.74-11.53-25.74-25.74
	c0-14.22,11.53-25.74,25.74-25.74c14.22,0,25.74,11.53,25.74,25.74C398.46,214.92,386.93,226.44,372.72,226.44z"/>
</svg>
