<?xml version="1.0" encoding="utf-8"?>
<!-- Generator: Adobe Illustrator 28.0.0, SVG Export Plug-In . SVG Version: 6.00 Build 0)  -->
<svg version="1.1" id="Layer_1" xmlns="http://www.w3.org/2000/svg" xmlns:xlink="http://www.w3.org/1999/xlink" x="0px" y="0px"
	 viewBox="0 0 500 500" style="enable-background:new 0 0 500 500;" xml:space="preserve">
<style type="text/css">
	.st0{fill:#FFFFFF;}
</style>
<path class="st0" d="M406.99,255.73c0-16.69-2.61-32.76-7.44-47.85l51.13-29.52l-38.3-66.33l-53.33,30.79
	c-19.44-18.78-43.7-32.58-70.76-39.36V40.38h-76.6v63.07c-27.06,6.78-51.32,20.59-70.76,39.36l-53.33-30.79l-38.3,66.33l51.13,29.52
	c-4.82,15.09-7.44,31.16-7.44,47.85c0,13.11,1.62,25.84,4.64,38.01l-48.33,27.9l38.3,66.33l46.19-26.67
	c20.48,22.52,47.42,39.06,77.89,46.7v51.61h76.6v-51.61c30.47-7.64,57.41-24.18,77.89-46.7l46.19,26.67l38.3-66.33l-48.33-27.9
	C405.38,281.57,406.99,268.84,406.99,255.73z M250,344.14c-51.99,0-94.14-42.15-94.14-94.14s42.15-94.14,94.14-94.14
	s94.14,42.15,94.14,94.14S301.99,344.14,250,344.14z"/>
</svg>
